<?xml version="1.0" standalone="no"?>
<!DOCTYPE svg PUBLIC "-//W3C//DTD SVG 20010904//EN"
 "http://www.w3.org/TR/2001/REC-SVG-20010904/DTD/svg10.dtd">
<svg version="1.0" xmlns="http://www.w3.org/2000/svg"
 width="512.000000pt" height="512.000000pt" viewBox="0 0 512.000000 512.000000"
 preserveAspectRatio="xMidYMid meet">

<g transform="translate(0.000000,512.000000) scale(0.100000,-0.100000)"
fill="#000000" stroke="none">
<path d="M960 3980 c-734 -5 -735 -5 -776 -27 -93 -50 -144 -114 -170 -212
-12 -51 -14 -148 -12 -643 4 -662 0 -634 86 -730 l47 -51 3 -876 3 -876 23
-50 c33 -74 79 -120 154 -157 l67 -33 2139 -3 c1378 -1 2159 1 2193 8 109 20
186 77 232 173 l30 62 3 877 3 877 36 38 c100 106 99 102 99 768 0 464 -3 571
-15 618 -26 102 -83 168 -180 213 l-50 23 -1590 3 c-875 2 -1921 1 -2325 -2z
m1869 -1941 l31 -31 0 -236 c-1 -256 -5 -279 -56 -353 -62 -89 -195 -143 -298
-120 -110 25 -209 112 -236 209 -5 20 -10 141 -10 269 l0 231 31 31 31 31 238
0 238 0 31 -31z"/>
</g>
</svg>
